<svg version="1.1" id="Uploaded to svgrepo.com" xmlns="http://www.w3.org/2000/svg" xmlns:xlink="http://www.w3.org/1999/xlink" x="0px" y="0px"
	 width="32px" height="32px" viewBox="0 0 32 32" style="enable-background:new 0 0 32 32;" xml:space="preserve">
<style type="text/css">
	.open_een{fill:#0B1719;}
</style>
<g>
	<g>
		<path class="open_een" d="M20.5,30c-1.93,0-3.5-1.57-3.5-3.5v-18C17,8.224,17.224,8,17.5,8S18,8.224,18,8.5v18
			c0,1.378,1.122,2.5,2.5,2.5s2.5-1.122,2.5-2.5v-21C23,4.122,21.878,3,20.5,3S18,4.122,18,5.5C18,5.776,17.776,6,17.5,6
			S17,5.776,17,5.5C17,3.57,18.57,2,20.5,2S24,3.57,24,5.5v21C24,28.43,22.43,30,20.5,30z"/>
		<path class="open_een" d="M11.5,30C9.57,30,8,28.43,8,26.5v-18C8,8.224,8.224,8,8.5,8S9,8.224,9,8.5v18c0,1.378,1.122,2.5,2.5,2.5
			s2.5-1.122,2.5-2.5v-21C14,4.122,12.878,3,11.5,3S9,4.122,9,5.5C9,5.776,8.776,6,8.5,6S8,5.776,8,5.5C8,3.57,9.57,2,11.5,2
			S15,3.57,15,5.5v21C15,28.43,13.43,30,11.5,30z"/>
	</g>
	<g>
		<path class="open_een" d="M20.5,30c-1.93,0-3.5-1.57-3.5-3.5v-18C17,8.224,17.224,8,17.5,8S18,8.224,18,8.5v18
			c0,1.378,1.122,2.5,2.5,2.5s2.5-1.122,2.5-2.5v-21C23,4.122,21.878,3,20.5,3S18,4.122,18,5.5C18,5.776,17.776,6,17.5,6
			S17,5.776,17,5.5C17,3.57,18.57,2,20.5,2S24,3.57,24,5.5v21C24,28.43,22.43,30,20.5,30z"/>
		<path class="open_een" d="M11.5,30C9.57,30,8,28.43,8,26.5v-18C8,8.224,8.224,8,8.5,8S9,8.224,9,8.5v18c0,1.378,1.122,2.5,2.5,2.5
			s2.5-1.122,2.5-2.5v-21C14,4.122,12.878,3,11.5,3S9,4.122,9,5.5C9,5.776,8.776,6,8.5,6S8,5.776,8,5.5C8,3.57,9.57,2,11.5,2
			S15,3.57,15,5.5v21C15,28.43,13.43,30,11.5,30z"/>
	</g>
</g>
</svg>